<svg xmlns="http://www.w3.org/2000/svg" viewBox="0 0 96 96" role="img" aria-label="decorps — launching rocket">
  <rect width="96" height="96" fill="#E2D6FF"/>
  <g transform="rotate(8 48 48)">
    <!-- flame -->
    <path d="M48 70 C42 80 44 86 48 92 C52 86 54 80 48 70 Z" fill="#FF9F45" stroke="#23233B" stroke-width="3" stroke-linejoin="round"/>
    <path d="M48 74 C45.5 80 46 84 48 87 C50 84 50.5 80 48 74 Z" fill="#FFC93C"/>
    <!-- fins -->
    <path d="M38 52 C30 56 28 64 29 70 C34 66 38 64 40 62 Z" fill="#A78BFA" stroke="#23233B" stroke-width="3" stroke-linejoin="round"/>
    <path d="M58 52 C66 56 68 64 67 70 C62 66 58 64 56 62 Z" fill="#A78BFA" stroke="#23233B" stroke-width="3" stroke-linejoin="round"/>
    <!-- body -->
    <path d="M48 8 C58 18 60 34 58 50 C58 62 54 70 48 70 C42 70 38 62 38 50 C36 34 38 18 48 8 Z" fill="#FFFFFF" stroke="#23233B" stroke-width="3.5" stroke-linejoin="round"/>
    <circle cx="48" cy="36" r="8" fill="#A78BFA" stroke="#23233B" stroke-width="3"/>
    <circle cx="45.5" cy="33.5" r="2.4" fill="#FFFFFF"/>
  </g>
  <!-- stars -->
  <path d="M76 16l1.8 3.8 3.8 1.8-3.8 1.8-1.8 3.8-1.8-3.8-3.8-1.8 3.8-1.8z" fill="#FFC93C" stroke="#23233B" stroke-width="1.8" stroke-linejoin="round"/>
  <circle cx="16" cy="52" r="2.6" fill="#FFFFFF" stroke="#23233B" stroke-width="1.8"/>
  <circle cx="80" cy="78" r="2.2" fill="#FFFFFF" stroke="#23233B" stroke-width="1.8"/>
</svg>
